<svg width="154" height="49" viewBox="0 0 154 49" fill="none" xmlns="http://www.w3.org/2000/svg">
<rect width="154" height="49" rx="4" fill="#0366D6"/>
<path d="M33.2678 21.561L29.0024 24.9953C28.1952 25.6282 27.0636 25.6282 26.2564 24.9953L21.9543 21.561" stroke="white" stroke-width="2" stroke-linecap="round" stroke-linejoin="round"/>
<path fill-rule="evenodd" clip-rule="evenodd" d="M22.8879 16H32.3158C33.6752 16.0152 34.969 16.5899 35.896 17.5902C36.823 18.5905 37.3022 19.929 37.222 21.2941V27.822C37.3022 29.1871 36.823 30.5256 35.896 31.5259C34.969 32.5262 33.6752 33.1009 32.3158 33.1161H22.8879C19.968 33.1161 18 30.7407 18 27.822V21.2941C18 18.3754 19.968 16 22.8879 16Z" stroke="white" stroke-width="2" stroke-linecap="round" stroke-linejoin="round"/>
<path d="M57.6326 31H60.2752V24.803H67.0349V31H69.6847V16.4121H67.0349V22.5877H60.2752V16.4121H57.6326V31ZM73.4478 31H76.0263V20.0591H73.4478V31ZM74.7442 18.5062C75.5633 18.5062 76.2329 17.8794 76.2329 17.1101C76.2329 16.3337 75.5633 15.7069 74.7442 15.7069C73.9179 15.7069 73.2483 16.3337 73.2483 17.1101C73.2483 17.8794 73.9179 18.5062 74.7442 18.5062ZM79.6808 31H82.2593V24.5679C82.2593 23.1789 83.3064 22.196 84.7238 22.196C85.1584 22.196 85.6997 22.2743 85.9205 22.3455V19.9736C85.6855 19.9308 85.2794 19.9024 84.9945 19.9024C83.7409 19.9024 82.6938 20.6147 82.2949 21.8825H82.1809V20.0591H79.6808V31ZM93.0296 31.2137C95.5797 31.2137 97.3319 29.9672 97.7878 28.0653L95.3802 27.7946C95.0312 28.7206 94.1764 29.205 93.0653 29.205C91.3985 29.205 90.2944 28.1081 90.273 26.2347H97.8947V25.4441C97.8947 21.6047 95.5868 19.9166 92.8943 19.9166C89.7602 19.9166 87.7159 22.2173 87.7159 25.5936C87.7159 29.0269 89.7317 31.2137 93.0296 31.2137ZM90.2802 24.4967C90.3585 23.1006 91.3913 21.9253 92.9299 21.9253C94.4115 21.9253 95.4087 23.008 95.423 24.4967H90.2802ZM107.171 16.4121V31H109.707V20.9566H109.842L113.874 30.9573H115.769L119.8 20.9779H119.936V31H122.472V16.4121H119.238L114.907 26.9826H114.736L110.405 16.4121H107.171ZM131.082 31.2137C133.632 31.2137 135.384 29.9672 135.84 28.0653L133.432 27.7946C133.083 28.7206 132.229 29.205 131.117 29.205C129.451 29.205 128.347 28.1081 128.325 26.2347H135.947V25.4441C135.947 21.6047 133.639 19.9166 130.946 19.9166C127.812 19.9166 125.768 22.2173 125.768 25.5936C125.768 29.0269 127.784 31.2137 131.082 31.2137ZM128.332 24.4967C128.411 23.1006 129.444 21.9253 130.982 21.9253C132.464 21.9253 133.461 23.008 133.475 24.4967H128.332Z" fill="white"/>
<rect x="0.5" y="0.5" width="153" height="48" rx="3.5" stroke="#D1D5DA" stroke-opacity="0.3"/>
</svg>
